<svg width="319" height="319" viewBox="0 0 319 319" fill="none" xmlns="http://www.w3.org/2000/svg">
<rect width="319" height="319" rx="64" fill="#E44C32"/>
<g filter="url(#filter0_d_87_3383)">
<path d="M42.5011 91.2817C42.3476 91.1114 42.1608 83.8283 42.087 74.9571C42.0861 74.8576 42.0556 74.3921 42.0798 74.2956C42.1309 74.0916 42.1956 72.4594 42.2622 70.2234C42.5139 61.7716 49.3827 55 57.8382 55H260.474C269.092 55 276.059 62.0225 275.99 70.6403L275.856 87.6277C275.838 89.9012 273.987 91.7343 271.714 91.7328L159.308 91.6598C95.2243 91.6191 42.6584 91.4504 42.5011 91.2817Z" fill="#FEFEFE" shape-rendering="crispEdges"/>
<path d="M42.1225 121.612C42.0939 115.738 42.1659 110.225 42.226 106.835C42.2613 104.838 43.734 103.225 45.7277 103.116C49.1024 102.93 55.4167 102.738 66.5615 102.84C88.414 103.038 91.0589 103.166 96.0982 104.289C99.145 104.97 103.602 106.226 106.002 107.087C108.408 107.942 112.603 109.792 115.323 111.194C118.05 112.59 122.506 115.406 125.227 117.453C127.953 119.501 132.026 123.102 134.274 125.463C136.529 127.819 139.791 131.845 141.522 134.404C143.252 136.964 145.763 141.28 147.097 144.003C148.431 146.725 150.208 151.042 151.041 153.601C151.88 156.161 152.963 160.611 153.459 163.49C154.164 167.639 154.33 175.209 154.353 249.476C154.356 258.046 147.408 265 138.838 265H133.751C125.182 265 118.235 258.054 118.234 249.485L118.23 219.481C118.23 191.686 117.997 172.489 117.636 170.18C117.316 168.103 116.482 164.828 115.783 162.909C115.09 160.989 113.861 158.371 113.057 157.091C112.247 155.812 110.4 153.351 108.944 151.617C107.488 149.89 104.592 147.278 102.507 145.812C100.427 144.352 96.7565 142.362 89.9811 139.646C86.0643 138.075 70.7113 138.124 58.4534 138.445C49.601 138.677 42.1727 131.651 42.1284 122.796L42.1225 121.612Z" fill="#FEFEFE" shape-rendering="crispEdges"/>
<path d="M216.109 106.569C218.515 105.749 222.71 104.696 225.43 104.237C229.002 103.636 235.888 103.403 273.705 103.294C275.994 103.287 277.862 105.142 277.862 107.431V123.84C277.862 132.407 270.92 139.353 262.353 139.357L256.452 139.361C239.703 139.366 234.157 139.558 230.965 140.239C228.722 140.716 225.186 141.903 223.1 142.88C221.02 143.857 217.74 145.853 215.818 147.307C213.895 148.761 211.105 151.559 209.619 153.525C208.128 155.486 206.199 158.534 205.325 160.291C204.446 162.048 203.24 165.457 202.634 167.853C201.66 171.698 201.544 174.661 201.543 249.47C201.543 258.041 194.596 265 186.025 265H180.942C172.372 265 165.425 258.053 165.425 249.483V217.881C165.425 187.137 165.646 169.296 166.054 166.544C166.398 164.223 167.172 160.366 167.773 157.964C168.373 155.567 169.648 151.507 170.621 148.947C171.588 146.388 173.761 142.013 175.457 139.221C177.146 136.435 179.954 132.38 181.69 130.204C183.432 128.035 186.968 124.347 189.555 122.008C192.148 119.67 196.097 116.563 198.34 115.103C200.583 113.643 204.516 111.462 207.079 110.257C209.642 109.047 213.709 107.389 216.109 106.569Z" fill="#FEFEFE" shape-rendering="crispEdges"/>
<path d="M42.5011 91.2817C42.3476 91.1114 42.1608 83.8283 42.087 74.9571C42.0861 74.8576 42.0556 74.3921 42.0798 74.2956C42.1309 74.0916 42.1956 72.4594 42.2622 70.2234C42.5139 61.7716 49.3827 55 57.8382 55H260.474C269.092 55 276.059 62.0225 275.99 70.6403L275.856 87.6277C275.838 89.9012 273.987 91.7343 271.714 91.7328L159.308 91.6598C95.2243 91.6191 42.6584 91.4504 42.5011 91.2817Z" stroke="#FD6E55" stroke-opacity="0.07" stroke-width="4" stroke-linecap="round" shape-rendering="crispEdges"/>
<path d="M42.1225 121.612C42.0939 115.738 42.1659 110.225 42.226 106.835C42.2613 104.838 43.734 103.225 45.7277 103.116C49.1024 102.93 55.4167 102.738 66.5615 102.84C88.414 103.038 91.0589 103.166 96.0982 104.289C99.145 104.97 103.602 106.226 106.002 107.087C108.408 107.942 112.603 109.792 115.323 111.194C118.05 112.59 122.506 115.406 125.227 117.453C127.953 119.501 132.026 123.102 134.274 125.463C136.529 127.819 139.791 131.845 141.522 134.404C143.252 136.964 145.763 141.28 147.097 144.003C148.431 146.725 150.208 151.042 151.041 153.601C151.88 156.161 152.963 160.611 153.459 163.49C154.164 167.639 154.33 175.209 154.353 249.476C154.356 258.046 147.408 265 138.838 265H133.751C125.182 265 118.235 258.054 118.234 249.485L118.23 219.481C118.23 191.686 117.997 172.489 117.636 170.18C117.316 168.103 116.482 164.828 115.783 162.909C115.09 160.989 113.861 158.371 113.057 157.091C112.247 155.812 110.4 153.351 108.944 151.617C107.488 149.89 104.592 147.278 102.507 145.812C100.427 144.352 96.7565 142.362 89.9811 139.646C86.0643 138.075 70.7113 138.124 58.4534 138.445C49.601 138.677 42.1727 131.651 42.1284 122.796L42.1225 121.612Z" stroke="#FD6E55" stroke-opacity="0.07" stroke-width="4" stroke-linecap="round" shape-rendering="crispEdges"/>
<path d="M216.109 106.569C218.515 105.749 222.71 104.696 225.43 104.237C229.002 103.636 235.888 103.403 273.705 103.294C275.994 103.287 277.862 105.142 277.862 107.431V123.84C277.862 132.407 270.92 139.353 262.353 139.357L256.452 139.361C239.703 139.366 234.157 139.558 230.965 140.239C228.722 140.716 225.186 141.903 223.1 142.88C221.02 143.857 217.74 145.853 215.818 147.307C213.895 148.761 211.105 151.559 209.619 153.525C208.128 155.486 206.199 158.534 205.325 160.291C204.446 162.048 203.24 165.457 202.634 167.853C201.66 171.698 201.544 174.661 201.543 249.47C201.543 258.041 194.596 265 186.025 265H180.942C172.372 265 165.425 258.053 165.425 249.483V217.881C165.425 187.137 165.646 169.296 166.054 166.544C166.398 164.223 167.172 160.366 167.773 157.964C168.373 155.567 169.648 151.507 170.621 148.947C171.588 146.388 173.761 142.013 175.457 139.221C177.146 136.435 179.954 132.38 181.69 130.204C183.432 128.035 186.968 124.347 189.555 122.008C192.148 119.67 196.097 116.563 198.34 115.103C200.583 113.643 204.516 111.462 207.079 110.257C209.642 109.047 213.709 107.389 216.109 106.569Z" stroke="#FD6E55" stroke-opacity="0.07" stroke-width="4" stroke-linecap="round" shape-rendering="crispEdges"/>
</g>
<defs>
<filter id="filter0_d_87_3383" x="34.2772" y="51.2069" width="251.379" height="225.586" filterUnits="userSpaceOnUse" color-interpolation-filters="sRGB">
<feFlood flood-opacity="0" result="BackgroundImageFix"/>
<feColorMatrix in="SourceAlpha" type="matrix" values="0 0 0 0 0 0 0 0 0 0 0 0 0 0 0 0 0 0 127 0" result="hardAlpha"/>
<feOffset dy="4"/>
<feGaussianBlur stdDeviation="2.89655"/>
<feComposite in2="hardAlpha" operator="out"/>
<feColorMatrix type="matrix" values="0 0 0 0 0 0 0 0 0 0 0 0 0 0 0 0 0 0 0.18 0"/>
<feBlend mode="normal" in2="BackgroundImageFix" result="effect1_dropShadow_87_3383"/>
<feBlend mode="normal" in="SourceGraphic" in2="effect1_dropShadow_87_3383" result="shape"/>
</filter>
</defs>
</svg>
